HIERARCHY
ROOT Hips
{
	OFFSET -3.958830 18.904000 13.208200
	CHANNELS 6 Xposition Yposition Zposition Zrotation Yrotation Xrotation 
	JOINT LHipJoint
	{
		OFFSET 0.000000 0.000000 0.000000
		CHANNELS 3 Zrotation Yrotation Xrotation
		JOINT LeftUpLeg
		{
			OFFSET 1.800000 -1.400000 0.085000
			CHANNELS 3 Zrotation Yrotation Xrotation
			JOINT LeftLeg
			{
				OFFSET 2.215000 -6.000000 0.000000
				CHANNELS 3 Zrotation Yrotation Xrotation
				JOINT LeftFoot
				{
					OFFSET 2.500000 -6.900000 0.000000
					CHANNELS 3 Zrotation Yrotation Xrotation
					JOINT LeftToeBase
					{
						OFFSET 0.200000 -0.500000 1.950000
						CHANNELS 3 Zrotation Yrotation Xrotation
						End Site
						{
							OFFSET 0.000000 0.000000 0.000000
						}
					}
				}
			}
		}
	}
	JOINT RHipJoint
	{
		OFFSET 0.000000 0.000000 0.000000
		CHANNELS 3 Zrotation Yrotation Xrotation
		JOINT RightUpLeg
		{
			OFFSET -1.800000 -1.400000 0.085000
			CHANNELS 3 Zrotation Yrotation Xrotation
			JOINT RightLeg
			{
				OFFSET -2.215000 -6.000000 0.000000
				CHANNELS 3 Zrotation Yrotation Xrotation
				JOINT RightFoot
				{
					OFFSET -2.500000 -6.900000 0.000000
					CHANNELS 3 Zrotation Yrotation Xrotation
					JOINT RightToeBase
					{
						OFFSET -0.200000 -0.500000 1.950000
						CHANNELS 3 Zrotation Yrotation Xrotation
						End Site
						{
							OFFSET 0.000000 0.000000 0.000000
						}
					}
				}
			}
		}
	}
	JOINT LowerBack
	{
		OFFSET 0.000000 0.000000 0.000000
		CHANNELS 3 Zrotation Yrotation Xrotation
		JOINT Spine
		{
			OFFSET -0.087000 1.940000 -0.288900
			CHANNELS 3 Zrotation Yrotation Xrotation
			JOINT Spine1
			{
				OFFSET 0.000000 1.950000 0.060000
				CHANNELS 3 Zrotation Yrotation Xrotation
				JOINT Neck
				{
					OFFSET 0.000000 0.000000 0.000000
					CHANNELS 3 Zrotation Yrotation Xrotation
					JOINT Neck1
					{
						OFFSET 0.000000 1.600000 0.340000
						CHANNELS 3 Zrotation Yrotation Xrotation
						JOINT Head
						{
							OFFSET 0.000000 1.667000 -0.240000
							CHANNELS 3 Zrotation Yrotation Xrotation
							End Site
							{
								OFFSET 0.000000 0.000000 0.000000
							}
						}
					}
				}
				JOINT LeftShoulder
				{
					OFFSET 0.000000 0.000000 0.000000
					CHANNELS 3 Zrotation Yrotation Xrotation
					JOINT LeftArm
					{
						OFFSET 2.700000 1.550000 -0.730000
						CHANNELS 3 Zrotation Yrotation Xrotation
						JOINT LeftForeArm
						{
							OFFSET 5.450000 0.000000 0.000000
							CHANNELS 3 Zrotation Yrotation Xrotation
							JOINT LeftHand
							{
								OFFSET 3.450000 0.000000 0.000000
								CHANNELS 3 Zrotation Yrotation Xrotation
								JOINT LeftHandIndex1
								{
									OFFSET 0.750000 0.000000 0.000000
									CHANNELS 3 Zrotation Yrotation Xrotation
									End Site
									{
										OFFSET 0.000000 0.000000 0.000000
									}
								}
							}
						}
					}
				}
				JOINT RightShoulder
				{
					OFFSET 0.000000 0.000000 0.000000
					CHANNELS 3 Zrotation Yrotation Xrotation
					JOINT RightArm
					{
						OFFSET -2.700000 1.550000 -0.730000
						CHANNELS 3 Zrotation Yrotation Xrotation
						JOINT RightForeArm
						{
							OFFSET -5.450000 0.000000 0.000000
							CHANNELS 3 Zrotation Yrotation Xrotation
							JOINT RightHand
							{
								OFFSET -3.450000 0.000000 0.000000
								CHANNELS 3 Zrotation Yrotation Xrotation
								JOINT RightHandIndex1
								{
									OFFSET -0.750000 0.000000 0.000000
									CHANNELS 3 Zrotation Yrotation Xrotation
									End Site
									{
										OFFSET 0.000000 0.000000 0.000000
									}
								}
							}
						}
					}
				}
			}
		}
	}
}
MOTION
Frames: 8
Frame Time: 0.016667
0.021840 16.796530 -1.553580 -3.325477 -4.608750 1.530819 -15.311859 13.826846 2.780971 13.131027 -0.283482 -12.977063 -4.843184 5.550900 9.912060 -0.273426 3.946437 3.453840 -0.779650 -0.657070 -0.859680 17.911775 -11.585994 2.169073 -10.202953 0.425928 -12.875601 0.139323 -4.450033 17.995756 0.189977 -3.679054 3.224794 -0.400950 0.853880 -0.170740 -2.699911 -1.506423 -6.900001 0.176019 5.874205 5.198289 14.070121 5.449101 0.664321 -2.007783 2.976014 -8.821051 2.939097 -0.549544 36.025405 -4.640380 2.874310 12.348440 -16.738400 -0.350294 5.888725 -28.173946 12.415741 -0.537088 -105.097416 -38.768994 43.006564 -4.158791 3.496626 -0.033390 0.510520 -0.620710 -0.134280 22.636460 0.072048 3.410070 46.195010 -12.468673 -7.831001 -2.171185 4.837213 -0.527231 2.411862 -0.973410 -0.392350 0.388520 0.697230 0.067840 
0.013940 16.782410 -1.554740 -3.067457 -3.523941 1.453398 -15.326450 13.828034 2.739403 12.674423 -0.363913 -13.508248 -4.260662 5.429095 10.423638 -0.307176 3.832012 3.478276 -0.724120 -0.585000 -0.819320 17.899771 -11.615132 2.153383 -10.659327 0.295752 -12.516579 0.311476 -4.517268 17.852399 0.170310 -3.727043 3.191882 -0.355410 0.813030 -0.177110 -2.684965 -1.473342 -6.834327 -0.562495 6.110604 5.165937 14.661595 5.636124 0.877216 -2.247413 3.316402 -8.571594 3.517155 -1.514348 35.178995 -5.002560 2.181970 11.260540 -16.562141 -0.454405 5.704997 -27.760907 11.233402 -0.300701 -105.224003 -41.232355 46.227115 -4.137040 3.524511 -0.035220 0.490320 -0.603820 -0.127610 22.957107 0.066358 3.201317 46.197230 -11.932698 -7.323330 -3.484039 2.769335 -0.384451 2.453836 -1.009526 -0.378860 0.377680 0.659150 0.064170 
-0.007110 16.768250 -1.566290 -3.234728 -0.856913 1.229602 -15.336628 13.779235 2.722716 12.827982 -0.447803 -14.582148 -4.042624 5.420794 11.023513 -0.331044 3.747104 3.494994 -0.661430 -0.487580 -0.793150 17.900405 -11.657714 2.139291 -10.157462 0.065842 -11.380021 -0.362221 -4.343077 17.516849 0.142410 -3.760685 3.201227 -0.295570 0.786270 -0.206070 -2.724117 -1.361344 -6.789999 -0.751910 6.359910 5.192055 15.542314 5.873744 1.223673 -2.743063 3.817991 -8.288984 4.251707 -3.213592 34.723101 -4.828950 0.454050 10.334200 -16.168788 -0.753659 5.529163 -28.313677 8.858751 0.081940 -105.422729 -46.730013 53.063044 -4.123792 3.518888 -0.047710 0.472240 -0.591790 -0.103400 23.538317 0.192304 2.891953 46.129376 -10.874125 -6.567233 -5.431113 -0.068743 -0.090558 2.504716 -1.043685 -0.367080 0.398430 0.609690 0.075300 
-0.014170 16.763870 -1.590710 -3.138538 2.344470 1.032786 -15.354120 13.800771 2.738336 12.165579 -0.649292 -15.830760 -2.989259 5.067602 11.166944 -0.417408 3.586658 3.541986 -0.667900 -0.509760 -0.807670 17.865408 -11.675992 2.178436 -10.494055 -0.111864 -10.470223 0.489277 -4.653763 17.129748 0.120414 -3.831215 3.178331 -0.295300 0.796860 -0.213580 -2.720795 -1.407197 -6.867058 -0.445125 6.532775 6.037133 16.299368 6.369829 0.760928 -3.303119 3.361263 -8.192301 3.213607 -4.223830 34.805919 -4.209860 -1.488060 9.349090 -15.915307 -0.512536 5.496848 -31.304307 6.655172 0.512012 -109.014125 -56.485899 67.156532 -4.187788 3.419239 -0.007230 0.455460 -0.593500 -0.112300 24.417467 0.493201 2.892131 44.865763 -10.296424 -5.809251 -6.040234 -2.128645 0.245789 2.507124 -0.991112 -0.389600 0.443590 0.650840 0.065420 
-0.022420 16.756170 -1.628930 -3.660565 6.810382 1.337451 -15.309522 13.764947 2.821663 11.719779 -1.087997 -18.848160 -1.837497 4.784915 12.297197 -0.479319 3.423127 3.581273 -0.742640 -0.613350 -0.864840 17.883604 -11.682819 2.312480 -9.996608 -0.263633 -9.559402 2.063409 -5.099202 16.291367 0.120954 -3.903268 3.171379 -0.348340 0.832190 -0.216150 -2.924874 -1.373668 -7.099780 1.791688 5.599904 7.308546 15.264521 6.024408 -0.860042 -3.694285 2.791525 -8.485327 2.214038 -4.779766 34.722303 -4.030670 -2.725810 10.378820 -15.962220 -0.384338 5.931928 -35.449063 6.500908 -0.341807 -119.735336 -65.626273 88.040759 -4.251441 3.113763 0.006430 0.464120 -0.619160 -0.132390 24.922290 0.656301 2.694292 44.705009 -9.478382 -5.319552 -7.335164 -4.151747 0.691213 2.538124 -0.942481 -0.416100 0.466740 0.718440 0.062450 
-0.042090 16.743410 -1.636000 -3.791730 8.165241 1.255301 -15.259580 13.626882 2.791269 11.856222 -1.105109 -19.543696 -1.784243 4.816143 12.909487 -0.446117 3.343607 3.589260 -0.696980 -0.537340 -0.849000 17.943904 -11.751612 2.358647 -9.899845 -0.343463 -9.142478 2.789411 -5.258010 15.909320 0.100760 -3.991142 3.143689 -0.321440 0.785220 -0.228290 -3.115658 -0.992483 -7.093849 2.861787 6.085106 6.925270 14.568349 6.532306 -0.517872 -3.728132 3.074213 -8.429213 2.682121 -6.189847 34.802158 -4.552240 -3.637480 11.314920 -16.264172 -0.665725 5.980846 -39.498012 4.406908 -1.765578 -134.031210 -71.803277 112.449941 -4.059855 2.914373 -0.027170 0.446480 -0.606410 -0.113060 25.082097 0.950855 2.658577 45.336545 -8.410199 -4.925584 -8.044277 -5.045136 0.820720 2.586551 -1.020284 -0.376870 0.423510 0.659100 0.081450 
-0.049850 16.722150 -1.670300 -3.565119 9.567825 1.132278 -15.206925 13.527627 2.762997 11.231872 -1.301446 -20.700433 -1.331299 4.856027 14.694143 -0.500845 3.388192 3.555106 -0.695660 -0.546010 -0.857170 18.000522 -11.812703 2.383199 -10.803326 -0.306788 -9.312105 4.386054 -5.816900 16.271900 0.086376 -4.151277 3.068842 -0.309160 0.798370 -0.214690 -3.316143 -0.710812 -7.077529 3.949247 6.307709 7.073117 13.242069 6.780903 0.252246 -3.614040 3.383277 -8.242126 3.336534 -7.021755 34.197439 -4.177620 -4.482640 10.337040 -16.727542 -1.232022 6.033611 -44.047179 0.208025 -1.479674 -171.131148 -76.516465 162.534743 -3.975620 3.143524 -0.014570 0.454160 -0.616570 -0.122190 25.047360 1.459950 2.306041 46.573281 -5.621735 -4.560020 -9.633110 -5.572753 0.987378 2.566924 -1.050351 -0.388200 0.437940 0.691750 0.070530 
-0.070690 16.724600 -1.696660 -3.258161 10.428501 0.821583 -15.143112 13.405480 2.733598 11.102837 -1.327070 -20.980552 -1.419763 4.942303 15.522756 -0.515006 3.405185 3.521750 -0.655680 -0.496430 -0.838260 18.063058 -11.901269 2.417071 -11.497721 -0.229564 -9.437166 5.407002 -6.167117 16.508108 0.055460 -4.270316 3.007621 -0.283390 0.769040 -0.205450 -3.526805 -0.321029 -7.093694 5.154903 6.490926 7.089397 10.999489 7.004472 1.132944 -2.892162 3.806360 -8.277977 4.161477 -7.322396 35.474664 -3.850400 -4.571190 9.791050 -19.439509 -2.691953 6.116072 -46.818997 -3.645778 1.206701 140.806867 -71.771928 -136.834247 -4.190274 3.077927 -0.001840 0.438260 -0.596910 -0.121670 26.091343 2.870835 2.281304 47.625935 -2.857344 -4.174854 -11.313062 -4.938579 0.887698 2.549753 -1.108597 -0.370390 0.422680 0.679810 0.065470 
